<svg width="451" height="242" viewBox="0 0 451 242" fill="none" xmlns="http://www.w3.org/2000/svg">
<path d="M46.912 91.752C52.48 78.12 59.104 64.872 66.784 52.008C74.656 39.144 83.776 26.184 94.144 13.128C95.872 11.592 98.464 10.344 101.92 9.384C105.568 8.232 108.64 8.328 111.136 9.67199C111.52 10.056 111.808 10.344 112 10.536C112.192 10.536 112.384 10.728 112.576 11.112C112.768 10.536 113.056 9.47999 113.44 7.944C114.4 5.63999 115.744 3.81599 117.472 2.472C119.2 0.935995 121.12 0.455996 123.232 1.032C126.496 1.992 128.704 3.528 129.856 5.63999C131.2 7.55999 131.776 9.95999 131.584 12.84C129.28 23.784 127.264 35.016 125.536 46.536C124 57.864 122.752 70.056 121.792 83.112C127.552 81.768 133.504 80.616 139.648 79.656C145.792 78.504 152.224 77.448 158.944 76.488C160.096 76.296 161.344 76.296 162.688 76.488C164.224 76.68 165.664 76.968 167.008 77.352C168.544 77.736 169.696 78.312 170.464 79.08C171.424 79.848 171.904 80.808 171.904 81.96C171.904 84.648 170.368 87.144 167.296 89.448C164.224 91.752 160.864 93.288 157.216 94.056C151.072 95.208 145.024 96.456 139.072 97.8C133.12 99.144 127.168 100.584 121.216 102.12C121.024 109.416 120.928 116.904 120.928 124.584C121.12 132.264 121.504 140.328 122.08 148.776C122.272 151.08 121.504 152.904 119.776 154.248C118.24 155.592 116.512 156.168 114.592 155.976C111.904 155.784 109.696 154.248 107.968 151.368C106.24 148.488 105.184 145.416 104.8 142.152C103.84 136.2 103.168 130.344 102.784 124.584C102.4 118.824 102.112 112.968 101.92 107.016C96.352 108.552 90.688 110.088 84.928 111.624C79.168 112.968 73.504 114.312 67.936 115.656C63.712 116.616 60.064 116.424 56.992 115.08C54.112 113.736 51.808 111.816 50.08 109.32C48.352 106.632 47.2 103.752 46.624 100.68C46.24 97.416 46.336 94.44 46.912 91.752ZM110.56 20.04C110.176 20.808 109.696 21.576 109.12 22.344C108.544 22.92 108.064 23.496 107.68 24.072C98.464 35.592 90.112 47.592 82.624 60.072C75.328 72.36 69.184 85.224 64.192 98.664C70.144 96.936 76.192 95.208 82.336 93.48C88.672 91.56 95.2 89.736 101.92 88.008C102.688 65.736 105.568 43.08 110.56 20.04ZM266.906 56.328C266.906 60.744 266.138 66.216 264.602 72.744C263.258 79.08 260.954 85.512 257.69 92.04C254.426 98.568 250.106 104.712 244.73 110.472C239.546 116.232 233.114 120.648 225.434 123.72C220.634 125.832 215.834 126.984 211.034 127.176C206.426 127.176 202.202 126.216 198.362 124.296C194.714 122.376 191.642 119.496 189.146 115.656C186.65 111.624 185.114 106.44 184.538 100.104C183.962 92.616 184.538 85.128 186.266 77.64C188.186 69.96 191.066 62.856 194.906 56.328C198.938 49.608 203.738 43.656 209.306 38.472C214.874 33.288 221.114 29.16 228.026 26.088C229.562 25.32 231.002 25.416 232.346 26.376C233.882 27.144 234.842 28.872 235.226 31.56C245.21 32.52 252.986 35.208 258.554 39.624C264.122 43.848 266.906 49.416 266.906 56.328ZM204.122 99.528C204.506 102.216 205.274 104.136 206.426 105.288C207.578 106.44 208.922 107.208 210.458 107.592C211.994 107.784 213.722 107.592 215.642 107.016C217.562 106.44 219.386 105.768 221.114 105C223.034 104.04 224.762 103.08 226.298 102.12C227.834 100.968 229.082 99.912 230.042 98.952C235.418 93.96 239.738 87.912 243.002 80.808C246.266 73.512 248.282 65.544 249.05 56.904C249.05 55.752 248.282 54.6 246.746 53.448C245.21 52.296 243.194 51.432 240.698 50.856C238.394 50.088 235.802 49.512 232.922 49.128C230.042 48.744 227.258 48.648 224.57 48.84C221.69 52.104 218.906 55.656 216.218 59.496C213.53 63.336 211.226 67.464 209.306 71.88C207.386 76.104 205.946 80.616 204.986 85.416C204.026 90.024 203.738 94.728 204.122 99.528ZM283.725 91.752C289.293 78.12 295.917 64.872 303.597 52.008C311.469 39.144 320.589 26.184 330.957 13.128C332.685 11.592 335.277 10.344 338.733 9.384C342.381 8.232 345.453 8.328 347.949 9.67199C348.333 10.056 348.621 10.344 348.812 10.536C349.005 10.536 349.197 10.728 349.389 11.112C349.581 10.536 349.869 9.47999 350.253 7.944C351.213 5.63999 352.557 3.81599 354.285 2.472C356.013 0.935995 357.933 0.455996 360.045 1.032C363.309 1.992 365.517 3.528 366.669 5.63999C368.013 7.55999 368.589 9.95999 368.397 12.84C366.093 23.784 364.077 35.016 362.349 46.536C360.813 57.864 359.565 70.056 358.605 83.112C364.365 81.768 370.317 80.616 376.461 79.656C382.605 78.504 389.037 77.448 395.757 76.488C396.909 76.296 398.157 76.296 399.501 76.488C401.037 76.68 402.477 76.968 403.821 77.352C405.357 77.736 406.509 78.312 407.277 79.08C408.237 79.848 408.717 80.808 408.717 81.96C408.717 84.648 407.181 87.144 404.109 89.448C401.037 91.752 397.677 93.288 394.029 94.056C387.885 95.208 381.837 96.456 375.885 97.8C369.933 99.144 363.981 100.584 358.029 102.12C357.837 109.416 357.741 116.904 357.741 124.584C357.933 132.264 358.317 140.328 358.893 148.776C359.085 151.08 358.317 152.904 356.589 154.248C355.053 155.592 353.325 156.168 351.405 155.976C348.717 155.784 346.509 154.248 344.781 151.368C343.053 148.488 341.997 145.416 341.613 142.152C340.653 136.2 339.981 130.344 339.597 124.584C339.213 118.824 338.925 112.968 338.733 107.016C333.165 108.552 327.501 110.088 321.741 111.624C315.981 112.968 310.317 114.312 304.749 115.656C300.525 116.616 296.877 116.424 293.805 115.08C290.925 113.736 288.621 111.816 286.893 109.32C285.165 106.632 284.013 103.752 283.437 100.68C283.053 97.416 283.149 94.44 283.725 91.752ZM347.373 20.04C346.989 20.808 346.509 21.576 345.933 22.344C345.357 22.92 344.877 23.496 344.493 24.072C335.277 35.592 326.925 47.592 319.437 60.072C312.141 72.36 305.997 85.224 301.005 98.664C306.957 96.936 313.005 95.208 319.148 93.48C325.485 91.56 332.013 89.736 338.733 88.008C339.501 65.736 342.381 43.08 347.373 20.04Z" fill="#D94D77"/>
<path d="M19.0189 226.6C18.7523 226.967 18.4523 227.217 18.1189 227.35C17.7856 227.45 17.4856 227.5 17.2189 227.5C16.7523 227.467 16.3189 227.317 15.9189 227.05C15.5189 226.75 15.2689 226.45 15.1689 226.15C14.9689 225.583 14.7523 224.95 14.5189 224.25C14.2856 223.55 14.0523 222.85 13.8189 222.15C13.6189 221.417 13.4023 220.717 13.1689 220.05C12.9356 219.35 12.7189 218.717 12.5189 218.15C11.8523 219.317 11.2189 220.5 10.6189 221.7C10.0189 222.867 9.35228 224.083 8.61895 225.35C8.28561 225.85 7.90228 226.2 7.46895 226.4C7.03561 226.567 6.66895 226.633 6.36895 226.6C5.93561 226.567 5.53561 226.4 5.16895 226.1C4.83561 225.8 4.56895 225.517 4.36895 225.25C4.00228 224.65 3.63561 223.883 3.26895 222.95C2.90228 221.983 2.55228 220.983 2.21895 219.95C1.91895 218.883 1.63561 217.833 1.36895 216.8C1.10228 215.733 0.885612 214.783 0.718945 213.95C0.618945 213.383 0.618945 212.85 0.718945 212.35C0.852279 211.85 1.15228 211.567 1.61895 211.5C2.18561 211.467 2.70228 211.667 3.16895 212.1C3.63561 212.5 3.90228 212.9 3.96895 213.3C4.10228 213.967 4.25228 214.7 4.41895 215.5C4.61895 216.267 4.81895 217.05 5.01895 217.85C5.25228 218.65 5.46895 219.433 5.66895 220.2C5.90228 220.967 6.13561 221.65 6.36895 222.25C6.86895 221.45 7.41895 220.533 8.01895 219.5C8.65228 218.433 9.25228 217.417 9.81895 216.45C10.3856 215.45 10.9023 214.583 11.3689 213.85C11.8356 213.117 12.2023 212.667 12.4689 212.5C12.6689 212.367 12.9523 212.383 13.3189 212.55C13.6856 212.683 13.9523 212.883 14.1189 213.15C14.8523 214.617 15.4523 216.233 15.9189 218C16.4189 219.733 16.9023 221.35 17.3689 222.85C17.8356 222.25 18.3356 221.467 18.8689 220.5C19.4023 219.5 19.9189 218.45 20.4189 217.35C20.9189 216.25 21.3856 215.15 21.8189 214.05C22.2523 212.95 22.6023 211.967 22.8689 211.1C23.1356 210.2 23.5023 209.767 23.9689 209.8C24.5689 209.867 25.0856 210.067 25.5189 210.4C25.9523 210.733 26.1189 211.083 26.0189 211.45C25.2856 214.383 24.3356 217.083 23.1689 219.55C22.0023 221.983 20.6189 224.333 19.0189 226.6ZM33.1369 205.6C33.1369 206.4 33.1202 207.3 33.0869 208.3C33.0869 209.3 33.0869 210.333 33.0869 211.4C33.1202 212.467 33.1369 213.567 33.1369 214.7C33.1702 215.833 33.2036 216.917 33.2369 217.95C33.5702 217.283 33.9702 216.633 34.4369 216C34.9036 215.333 35.4202 214.75 35.9869 214.25C36.5869 213.75 37.2036 213.35 37.8369 213.05C38.5036 212.75 39.2202 212.6 39.9869 212.6C40.8202 212.6 41.5536 212.867 42.1869 213.4C42.8536 213.933 43.4202 214.65 43.8869 215.55C44.3869 216.417 44.8036 217.4 45.1369 218.5C45.4702 219.567 45.7369 220.667 45.9369 221.8C46.1702 222.9 46.3369 223.967 46.4369 225C46.5369 226 46.6202 226.867 46.6869 227.6C46.6869 228.133 46.5536 228.567 46.2869 228.9C46.0202 229.233 45.7036 229.4 45.3369 229.4C45.0702 229.4 44.7369 229.233 44.3369 228.9C43.9702 228.533 43.7036 228.1 43.5369 227.6C43.4369 227.2 43.3369 226.617 43.2369 225.85C43.1369 225.083 43.0202 224.267 42.8869 223.4C42.7536 222.5 42.5869 221.6 42.3869 220.7C42.1869 219.8 41.9369 219 41.6369 218.3C41.3702 217.567 41.0369 217 40.6369 216.6C40.2369 216.2 39.7702 216.05 39.2369 216.15C38.4036 216.317 37.6702 216.9 37.0369 217.9C36.4369 218.9 35.9036 220.033 35.4369 221.3C35.0036 222.567 34.6369 223.85 34.3369 225.15C34.0702 226.45 33.8702 227.5 33.7369 228.3C33.6036 228.9 33.4202 229.317 33.1869 229.55C32.9869 229.75 32.7536 229.85 32.4869 229.85C32.2202 229.85 31.9702 229.717 31.7369 229.45C31.5369 229.183 31.3369 228.867 31.1369 228.5C30.9702 228.1 30.8202 227.7 30.6869 227.3C30.5536 226.867 30.4702 226.5 30.4369 226.2C30.2702 224.4 30.1369 222.683 30.0369 221.05C29.9369 219.383 29.8536 217.717 29.7869 216.05C29.7536 214.383 29.7369 212.683 29.7369 210.95C29.7369 209.183 29.7702 207.3 29.8369 205.3C29.8369 203.633 30.4369 202.883 31.6369 203.05C32.0369 203.117 32.3869 203.417 32.6869 203.95C32.9869 204.45 33.1369 205 33.1369 205.6ZM62.7912 209.25C62.9245 210.183 63.0245 211.183 63.0912 212.25C63.1912 213.283 63.2579 214.333 63.2912 215.4C63.3579 216.467 63.3912 217.5 63.3912 218.5C63.3912 219.5 63.3745 220.4 63.3412 221.2C64.4079 221.933 65.0412 222.583 65.2412 223.15C65.4745 223.717 65.5079 224.217 65.3412 224.65C65.1412 225.25 64.7745 225.567 64.2412 225.6C63.7412 225.6 63.1579 225.417 62.4912 225.05C62.0245 225.383 61.4912 225.75 60.8912 226.15C60.2912 226.517 59.6579 226.883 58.9912 227.25C58.3245 227.583 57.6579 227.883 56.9912 228.15C56.3245 228.417 55.7079 228.6 55.1412 228.7C54.0745 228.867 53.1079 228.667 52.2412 228.1C51.4079 227.533 50.8412 226.683 50.5412 225.55C50.3412 224.783 50.2912 224 50.3912 223.2C50.4912 222.367 50.7412 221.583 51.1412 220.85C51.5412 220.083 52.0745 219.4 52.7412 218.8C53.4412 218.2 54.2579 217.733 55.1912 217.4C55.4245 217.3 55.7412 217.217 56.1412 217.15C56.5745 217.083 57.0079 217.067 57.4412 217.1C57.9079 217.1 58.3745 217.183 58.8412 217.35C59.3079 217.517 59.7412 217.8 60.1412 218.2C60.1412 217.633 60.1245 217.017 60.0912 216.35C60.0912 215.65 60.0745 214.95 60.0412 214.25C60.0079 213.55 59.9579 212.9 59.8912 212.3C59.8579 211.667 59.8079 211.133 59.7412 210.7C59.6745 210.2 59.4745 209.9 59.1412 209.8C58.8412 209.667 58.4579 209.683 57.9912 209.85C57.1912 210.117 56.2579 210.633 55.1912 211.4C54.1245 212.167 53.1079 212.983 52.1412 213.85C51.8412 214.15 51.4912 214.283 51.0912 214.25C50.7245 214.217 50.4079 214.067 50.1412 213.8C49.8745 213.533 49.7245 213.233 49.6912 212.9C49.6579 212.533 49.7912 212.15 50.0912 211.75C50.6579 211.15 51.2912 210.533 51.9912 209.9C52.6912 209.267 53.4245 208.7 54.1912 208.2C54.9579 207.667 55.7412 207.233 56.5412 206.9C57.3412 206.567 58.1412 206.383 58.9412 206.35C60.1079 206.317 61.0079 206.583 61.6412 207.15C62.2745 207.683 62.6579 208.383 62.7912 209.25ZM56.9912 220C56.5579 220.1 56.0912 220.317 55.5912 220.65C55.1245 220.95 54.6912 221.333 54.2912 221.8C53.9245 222.233 53.6412 222.733 53.4412 223.3C53.2745 223.833 53.2745 224.367 53.4412 224.9C53.5079 225.1 53.6412 225.25 53.8412 225.35C54.0745 225.45 54.3245 225.467 54.5912 225.4C55.3912 225.233 56.2912 224.917 57.2912 224.45C58.3245 223.95 59.1412 223.417 59.7412 222.85C59.7412 222.65 59.6412 222.4 59.4412 222.1C59.2412 221.767 59.0079 221.45 58.7412 221.15C58.4745 220.817 58.1745 220.533 57.8412 220.3C57.5412 220.067 57.2579 219.967 56.9912 220ZM79.61 214.35C80.2433 214.317 80.8766 214.467 81.51 214.8C82.1433 215.133 82.46 215.65 82.46 216.35C82.3933 216.917 82.0766 217.283 81.51 217.45C80.9766 217.583 80.5433 217.65 80.21 217.65C79.5433 217.65 78.8266 217.667 78.06 217.7C77.2933 217.733 76.51 217.783 75.71 217.85C75.6433 218.95 75.5766 219.983 75.51 220.95C75.4766 221.917 75.4433 222.783 75.41 223.55C75.3766 224.283 75.36 224.883 75.36 225.35C75.36 225.817 75.3766 226.067 75.41 226.1C76.1433 225.967 76.9266 225.75 77.76 225.45C78.6266 225.117 79.4766 224.767 80.31 224.4C81.1766 224 82.01 223.6 82.81 223.2C83.6433 222.767 84.4266 222.367 85.16 222C85.4933 221.833 85.7933 221.783 86.06 221.85C86.36 221.917 86.5433 222.067 86.61 222.3C86.6766 222.667 86.6266 223.117 86.46 223.65C86.2933 224.183 85.9933 224.667 85.56 225.1C85.06 225.5 84.3933 225.967 83.56 226.5C82.76 227 81.8933 227.483 80.96 227.95C80.0266 228.417 79.0766 228.833 78.11 229.2C77.1766 229.533 76.3433 229.733 75.61 229.8C74.51 229.9 73.6766 229.6 73.11 228.9C72.5433 228.2 72.2266 227.317 72.16 226.25C72.0933 225.183 72.0766 223.95 72.11 222.55C72.1766 221.15 72.2433 219.667 72.31 218.1C71.6766 218.167 71.06 218.233 70.46 218.3C69.8933 218.333 69.3433 218.383 68.81 218.45C68.3766 218.45 67.8933 218.35 67.36 218.15C66.86 217.95 66.61 217.567 66.61 217C66.61 216.8 66.6933 216.533 66.86 216.2C67.0266 215.867 67.3933 215.617 67.96 215.45C69.3266 215.217 70.8433 215.017 72.51 214.85C72.61 213.283 72.7266 211.767 72.86 210.3C72.9933 208.833 73.11 207.5 73.21 206.3C73.2433 205.9 73.36 205.55 73.56 205.25C73.76 204.95 73.9766 204.8 74.21 204.8C74.7766 204.767 75.31 204.917 75.81 205.25C76.3433 205.55 76.61 205.9 76.61 206.3C76.4766 207.433 76.3433 208.717 76.21 210.15C76.11 211.583 76.01 213.05 75.91 214.55C76.5766 214.483 77.21 214.45 77.81 214.45C78.4433 214.417 79.0433 214.383 79.61 214.35ZM115.184 209.25C115.317 210.183 115.417 211.183 115.484 212.25C115.584 213.283 115.65 214.333 115.684 215.4C115.75 216.467 115.784 217.5 115.784 218.5C115.784 219.5 115.767 220.4 115.734 221.2C116.8 221.933 117.434 222.583 117.634 223.15C117.867 223.717 117.9 224.217 117.734 224.65C117.534 225.25 117.167 225.567 116.634 225.6C116.134 225.6 115.55 225.417 114.884 225.05C114.417 225.383 113.884 225.75 113.284 226.15C112.684 226.517 112.05 226.883 111.384 227.25C110.717 227.583 110.05 227.883 109.384 228.15C108.717 228.417 108.1 228.6 107.534 228.7C106.467 228.867 105.5 228.667 104.634 228.1C103.8 227.533 103.234 226.683 102.934 225.55C102.734 224.783 102.684 224 102.784 223.2C102.884 222.367 103.134 221.583 103.534 220.85C103.934 220.083 104.467 219.4 105.134 218.8C105.834 218.2 106.65 217.733 107.584 217.4C107.817 217.3 108.134 217.217 108.534 217.15C108.967 217.083 109.4 217.067 109.834 217.1C110.3 217.1 110.767 217.183 111.234 217.35C111.7 217.517 112.134 217.8 112.534 218.2C112.534 217.633 112.517 217.017 112.484 216.35C112.484 215.65 112.467 214.95 112.434 214.25C112.4 213.55 112.35 212.9 112.284 212.3C112.25 211.667 112.2 211.133 112.134 210.7C112.067 210.2 111.867 209.9 111.534 209.8C111.234 209.667 110.85 209.683 110.384 209.85C109.584 210.117 108.65 210.633 107.584 211.4C106.517 212.167 105.5 212.983 104.534 213.85C104.234 214.15 103.884 214.283 103.484 214.25C103.117 214.217 102.8 214.067 102.534 213.8C102.267 213.533 102.117 213.233 102.084 212.9C102.05 212.533 102.184 212.15 102.484 211.75C103.05 211.15 103.684 210.533 104.384 209.9C105.084 209.267 105.817 208.7 106.584 208.2C107.35 207.667 108.134 207.233 108.934 206.9C109.734 206.567 110.534 206.383 111.334 206.35C112.5 206.317 113.4 206.583 114.034 207.15C114.667 207.683 115.05 208.383 115.184 209.25ZM109.384 220C108.95 220.1 108.484 220.317 107.984 220.65C107.517 220.95 107.084 221.333 106.684 221.8C106.317 222.233 106.034 222.733 105.834 223.3C105.667 223.833 105.667 224.367 105.834 224.9C105.9 225.1 106.034 225.25 106.234 225.35C106.467 225.45 106.717 225.467 106.984 225.4C107.784 225.233 108.684 224.917 109.684 224.45C110.717 223.95 111.534 223.417 112.134 222.85C112.134 222.65 112.034 222.4 111.834 222.1C111.634 221.767 111.4 221.45 111.134 221.15C110.867 220.817 110.567 220.533 110.234 220.3C109.934 220.067 109.65 219.967 109.384 220ZM135.603 210.5C135.003 210.833 134.369 211.183 133.703 211.55C133.069 211.917 132.419 212.35 131.753 212.85C131.119 213.317 130.503 213.883 129.903 214.55C129.336 215.183 128.819 215.95 128.353 216.85C127.686 218.117 127.236 219.417 127.003 220.75C126.769 222.05 126.619 223.333 126.553 224.6C126.553 225.2 126.403 225.817 126.103 226.45C125.836 227.05 125.453 227.35 124.953 227.35C124.319 227.35 123.803 227.033 123.403 226.4C123.036 225.733 122.786 225.1 122.653 224.5C122.086 222.133 121.619 219.8 121.253 217.5C120.886 215.167 120.569 212.85 120.303 210.55C120.303 210.083 120.436 209.783 120.703 209.65C121.003 209.517 121.336 209.467 121.703 209.5C122.103 209.533 122.486 209.633 122.853 209.8C123.219 209.967 123.436 210.233 123.503 210.6C123.636 211.833 123.803 213.133 124.003 214.5C124.203 215.833 124.403 216.983 124.603 217.95C124.736 216.817 125.103 215.717 125.703 214.65C126.303 213.583 127.036 212.617 127.903 211.75C128.803 210.883 129.803 210.15 130.903 209.55C132.036 208.95 133.186 208.55 134.353 208.35C134.853 208.283 135.269 208.283 135.603 208.35C135.936 208.417 136.169 208.533 136.303 208.7C136.436 208.867 136.453 209.133 136.353 209.5C136.286 209.867 136.036 210.2 135.603 210.5ZM150.721 216C149.421 216.767 148.021 217.367 146.521 217.8C145.021 218.2 143.405 218.4 141.671 218.4C141.738 219.567 142.071 220.5 142.671 221.2C143.271 221.867 144.021 222.267 144.921 222.4C145.455 222.467 145.988 222.45 146.521 222.35C147.088 222.25 147.605 222.1 148.071 221.9C148.571 221.667 149.021 221.417 149.421 221.15C149.821 220.883 150.171 220.617 150.471 220.35C150.771 220.083 151.088 219.917 151.421 219.85C151.755 219.75 152.005 219.733 152.171 219.8C152.638 219.967 152.805 220.467 152.671 221.3C152.138 222.367 151.371 223.283 150.371 224.05C149.371 224.783 148.255 225.25 147.021 225.45C145.955 225.65 144.855 225.6 143.721 225.3C142.588 225 141.571 224.417 140.671 223.55C139.905 222.783 139.321 221.883 138.921 220.85C138.521 219.817 138.271 218.75 138.171 217.65C138.071 216.617 138.155 215.633 138.421 214.7C138.721 213.767 139.171 212.95 139.771 212.25C140.371 211.517 141.121 210.917 142.021 210.45C142.921 209.983 143.971 209.717 145.171 209.65C146.605 209.55 147.905 209.817 149.071 210.45C150.238 211.083 151.055 211.967 151.521 213.1C151.788 213.733 151.855 214.283 151.721 214.75C151.621 215.217 151.288 215.633 150.721 216ZM144.971 212.6C144.638 212.667 144.271 212.783 143.871 212.95C143.505 213.117 143.155 213.333 142.821 213.6C142.521 213.833 142.238 214.117 141.971 214.45C141.738 214.75 141.605 215.1 141.571 215.5C142.138 215.5 142.755 215.45 143.421 215.35C144.121 215.25 144.788 215.133 145.421 215C146.088 214.833 146.688 214.65 147.221 214.45C147.788 214.25 148.255 214.033 148.621 213.8C148.355 213.167 147.855 212.783 147.121 212.65C146.421 212.483 145.705 212.467 144.971 212.6ZM185.664 212C185.764 213.8 185.864 215.617 185.964 217.45C186.098 219.283 186.131 221.1 186.064 222.9C185.998 224.667 185.814 226.4 185.514 228.1C185.248 229.8 184.781 231.433 184.114 233C183.448 234.533 182.548 235.967 181.414 237.3C180.314 238.633 178.914 239.833 177.214 240.9C176.948 241.067 176.648 241.167 176.314 241.2C176.014 241.233 175.714 241.217 175.414 241.15C175.114 241.117 174.848 241.033 174.614 240.9C174.381 240.8 174.231 240.65 174.164 240.45C174.064 240.15 174.114 239.817 174.314 239.45C174.514 239.083 174.848 238.7 175.314 238.3C176.781 237.2 178.014 236.033 179.014 234.8C180.014 233.567 180.814 232.233 181.414 230.8C182.014 229.367 182.398 227.817 182.564 226.15C182.764 224.45 182.764 222.6 182.564 220.6C182.164 221.1 181.698 221.617 181.164 222.15C180.631 222.683 180.064 223.167 179.464 223.6C178.864 224 178.248 224.35 177.614 224.65C176.981 224.917 176.381 225.05 175.814 225.05C175.348 225.05 174.881 224.95 174.414 224.75C173.948 224.55 173.481 224.167 173.014 223.6C172.481 222.9 171.998 222.117 171.564 221.25C171.164 220.35 170.814 219.483 170.514 218.65C170.214 217.817 169.964 217.067 169.764 216.4C169.598 215.733 169.498 215.267 169.464 215C169.398 214.667 169.398 214.35 169.464 214.05C169.531 213.75 169.748 213.567 170.114 213.5C170.614 213.4 171.081 213.433 171.514 213.6C171.948 213.767 172.248 214.033 172.414 214.4C172.548 214.767 172.731 215.333 172.964 216.1C173.198 216.867 173.481 217.633 173.814 218.4C174.148 219.133 174.498 219.783 174.864 220.35C175.264 220.917 175.681 221.2 176.114 221.2C176.614 221.2 177.198 220.95 177.864 220.45C178.564 219.95 179.231 219.3 179.864 218.5C180.498 217.7 181.031 216.817 181.464 215.85C181.931 214.85 182.164 213.883 182.164 212.95C182.164 212.75 182.198 212.517 182.264 212.25C182.331 211.983 182.431 211.733 182.564 211.5C182.698 211.233 182.848 211.017 183.014 210.85C183.214 210.65 183.414 210.533 183.614 210.5C184.148 210.433 184.614 210.583 185.014 210.95C185.448 211.283 185.664 211.633 185.664 212ZM201.977 210.3C202.977 210.667 203.81 211.217 204.477 211.95C205.177 212.683 205.71 213.517 206.077 214.45C206.443 215.35 206.643 216.283 206.677 217.25C206.743 218.217 206.643 219.117 206.377 219.95C206.01 220.883 205.543 221.8 204.977 222.7C204.41 223.6 203.76 224.4 203.027 225.1C202.293 225.8 201.46 226.367 200.527 226.8C199.593 227.233 198.56 227.45 197.427 227.45C196.06 227.45 194.91 227.133 193.977 226.5C193.043 225.867 192.31 225.05 191.777 224.05C191.243 223.05 190.893 221.917 190.727 220.65C190.593 219.383 190.627 218.117 190.827 216.85C190.96 215.917 191.177 215.017 191.477 214.15C191.81 213.25 192.227 212.467 192.727 211.8C193.227 211.1 193.793 210.533 194.427 210.1C195.093 209.667 195.843 209.45 196.677 209.45C197.143 209.45 197.727 209.55 198.427 209.75C199.127 209.917 199.777 210.167 200.377 210.5C200.81 210.1 201.343 210.033 201.977 210.3ZM200.077 213.95C199.71 213.717 199.277 213.417 198.777 213.05C198.31 212.65 197.893 212.45 197.527 212.45C197.127 212.45 196.727 212.633 196.327 213C195.96 213.367 195.627 213.8 195.327 214.3C195.06 214.767 194.827 215.25 194.627 215.75C194.427 216.25 194.293 216.65 194.227 216.95C194.127 217.45 194.06 218.05 194.027 218.75C193.993 219.45 194.043 220.15 194.177 220.85C194.31 221.517 194.56 222.133 194.927 222.7C195.327 223.233 195.91 223.617 196.677 223.85C197.143 223.983 197.693 223.983 198.327 223.85C198.96 223.683 199.577 223.4 200.177 223C200.81 222.6 201.393 222.067 201.927 221.4C202.493 220.733 202.927 219.967 203.227 219.1C203.56 218.133 203.56 217.133 203.227 216.1C202.927 215.033 202.293 214.267 201.327 213.8C201.093 213.967 200.86 214.05 200.627 214.05C200.393 214.05 200.21 214.017 200.077 213.95ZM214.992 212.95C214.792 213.85 214.592 214.85 214.392 215.95C214.192 217.017 214.042 218.05 213.942 219.05C213.875 220.05 213.875 220.95 213.942 221.75C214.042 222.55 214.258 223.117 214.592 223.45C215.158 223.55 215.808 223.317 216.542 222.75C217.275 222.15 217.992 221.4 218.692 220.5C219.392 219.6 220.025 218.633 220.592 217.6C221.158 216.533 221.558 215.6 221.792 214.8C221.925 214.4 222.042 213.983 222.142 213.55C222.242 213.117 222.292 212.667 222.292 212.2C222.292 211.933 222.458 211.683 222.792 211.45C223.158 211.183 223.458 211.033 223.692 211C223.858 210.967 224.042 211 224.242 211.1C224.475 211.2 224.675 211.35 224.842 211.55C225.042 211.717 225.208 211.933 225.342 212.2C225.508 212.433 225.592 212.683 225.592 212.95C225.658 213.95 225.758 215.05 225.892 216.25C226.025 217.45 226.175 218.65 226.342 219.85C226.542 221.05 226.742 222.217 226.942 223.35C227.142 224.483 227.342 225.5 227.542 226.4C227.642 226.767 227.542 227.183 227.242 227.65C226.942 228.117 226.608 228.4 226.242 228.5C225.942 228.567 225.625 228.533 225.292 228.4C224.992 228.267 224.758 228 224.592 227.6C224.425 227.133 224.258 226.567 224.092 225.9C223.958 225.2 223.825 224.483 223.692 223.75C223.592 222.983 223.492 222.267 223.392 221.6C223.292 220.9 223.225 220.317 223.192 219.85C222.692 220.75 222.092 221.667 221.392 222.6C220.725 223.5 219.992 224.333 219.192 225.1C218.425 225.833 217.608 226.417 216.742 226.85C215.908 227.25 215.042 227.4 214.142 227.3C212.808 227.133 211.792 225.883 211.092 223.55C210.825 222.617 210.692 221.583 210.692 220.45C210.725 219.317 210.808 218.2 210.942 217.1C211.108 215.967 211.292 214.9 211.492 213.9C211.725 212.9 211.925 212.083 212.092 211.45C212.158 211.183 212.292 210.95 212.492 210.75C212.692 210.517 212.925 210.433 213.192 210.5C213.692 210.6 214.142 210.9 214.542 211.4C214.975 211.9 215.125 212.417 214.992 212.95ZM249.413 204.35C249.58 207.983 249.863 211.75 250.263 215.65C250.663 219.517 251.096 223.217 251.563 226.75C251.663 228.217 251.263 228.967 250.363 229C250.163 229 249.963 228.933 249.763 228.8C249.563 228.633 249.38 228.433 249.213 228.2C249.046 227.967 248.88 227.717 248.713 227.45C248.58 227.183 248.496 226.95 248.463 226.75C248.196 225.05 247.946 223.25 247.713 221.35C247.48 219.45 247.263 217.55 247.063 215.65C246.896 213.717 246.746 211.833 246.613 210C246.48 208.167 246.396 206.483 246.363 204.95C246.43 204.15 246.546 203.483 246.713 202.95C246.88 202.383 247.23 202.117 247.763 202.15C248.33 202.183 248.73 202.417 248.963 202.85C249.23 203.25 249.38 203.75 249.413 204.35ZM267.162 210.3C268.162 210.667 268.996 211.217 269.662 211.95C270.362 212.683 270.896 213.517 271.262 214.45C271.629 215.35 271.829 216.283 271.862 217.25C271.929 218.217 271.829 219.117 271.562 219.95C271.196 220.883 270.729 221.8 270.162 222.7C269.596 223.6 268.946 224.4 268.212 225.1C267.479 225.8 266.646 226.367 265.712 226.8C264.779 227.233 263.746 227.45 262.612 227.45C261.246 227.45 260.096 227.133 259.162 226.5C258.229 225.867 257.496 225.05 256.962 224.05C256.429 223.05 256.079 221.917 255.912 220.65C255.779 219.383 255.812 218.117 256.012 216.85C256.146 215.917 256.362 215.017 256.662 214.15C256.996 213.25 257.412 212.467 257.912 211.8C258.412 211.1 258.979 210.533 259.612 210.1C260.279 209.667 261.029 209.45 261.862 209.45C262.329 209.45 262.912 209.55 263.612 209.75C264.312 209.917 264.962 210.167 265.562 210.5C265.996 210.1 266.529 210.033 267.162 210.3ZM265.262 213.95C264.896 213.717 264.462 213.417 263.962 213.05C263.496 212.65 263.079 212.45 262.712 212.45C262.312 212.45 261.912 212.633 261.512 213C261.146 213.367 260.812 213.8 260.512 214.3C260.246 214.767 260.012 215.25 259.812 215.75C259.612 216.25 259.479 216.65 259.412 216.95C259.312 217.45 259.246 218.05 259.212 218.75C259.179 219.45 259.229 220.15 259.362 220.85C259.496 221.517 259.746 222.133 260.112 222.7C260.512 223.233 261.096 223.617 261.862 223.85C262.329 223.983 262.879 223.983 263.512 223.85C264.146 223.683 264.762 223.4 265.362 223C265.996 222.6 266.579 222.067 267.112 221.4C267.679 220.733 268.112 219.967 268.412 219.1C268.746 218.133 268.746 217.133 268.412 216.1C268.112 215.033 267.479 214.267 266.512 213.8C266.279 213.967 266.046 214.05 265.812 214.05C265.579 214.05 265.396 214.017 265.262 213.95ZM287.377 210.3C288.377 210.667 289.21 211.217 289.877 211.95C290.577 212.683 291.11 213.517 291.477 214.45C291.844 215.35 292.044 216.283 292.077 217.25C292.144 218.217 292.044 219.117 291.777 219.95C291.41 220.883 290.944 221.8 290.377 222.7C289.81 223.6 289.16 224.4 288.427 225.1C287.694 225.8 286.86 226.367 285.927 226.8C284.994 227.233 283.96 227.45 282.827 227.45C281.46 227.45 280.31 227.133 279.377 226.5C278.444 225.867 277.71 225.05 277.177 224.05C276.644 223.05 276.294 221.917 276.127 220.65C275.994 219.383 276.027 218.117 276.227 216.85C276.36 215.917 276.577 215.017 276.877 214.15C277.21 213.25 277.627 212.467 278.127 211.8C278.627 211.1 279.194 210.533 279.827 210.1C280.494 209.667 281.244 209.45 282.077 209.45C282.544 209.45 283.127 209.55 283.827 209.75C284.527 209.917 285.177 210.167 285.777 210.5C286.21 210.1 286.744 210.033 287.377 210.3ZM285.477 213.95C285.11 213.717 284.677 213.417 284.177 213.05C283.71 212.65 283.294 212.45 282.927 212.45C282.527 212.45 282.127 212.633 281.727 213C281.36 213.367 281.027 213.8 280.727 214.3C280.46 214.767 280.227 215.25 280.027 215.75C279.827 216.25 279.694 216.65 279.627 216.95C279.527 217.45 279.46 218.05 279.427 218.75C279.394 219.45 279.444 220.15 279.577 220.85C279.71 221.517 279.96 222.133 280.327 222.7C280.727 223.233 281.31 223.617 282.077 223.85C282.544 223.983 283.094 223.983 283.727 223.85C284.36 223.683 284.977 223.4 285.577 223C286.21 222.6 286.794 222.067 287.327 221.4C287.894 220.733 288.327 219.967 288.627 219.1C288.96 218.133 288.96 217.133 288.627 216.1C288.327 215.033 287.694 214.267 286.727 213.8C286.494 213.967 286.26 214.05 286.027 214.05C285.794 214.05 285.61 214.017 285.477 213.95ZM309.842 211.4C309.975 211.367 310.175 211.35 310.442 211.35C310.709 211.317 310.959 211.333 311.192 211.4C311.459 211.433 311.675 211.517 311.842 211.65C312.042 211.75 312.159 211.883 312.192 212.05C312.259 212.45 312.192 212.817 311.992 213.15C311.825 213.45 311.509 213.717 311.042 213.95C309.775 214.55 308.459 215.233 307.092 216C305.725 216.733 304.559 217.4 303.592 218C304.192 218.4 304.875 218.85 305.642 219.35C306.442 219.85 307.259 220.383 308.092 220.95C308.925 221.483 309.759 222.067 310.592 222.7C311.425 223.3 312.209 223.9 312.942 224.5C313.609 225.067 313.725 225.583 313.292 226.05C313.092 226.283 312.759 226.45 312.292 226.55C311.859 226.65 311.442 226.6 311.042 226.4C310.309 226.033 309.509 225.6 308.642 225.1C307.775 224.567 306.892 224.033 305.992 223.5C305.092 222.933 304.209 222.383 303.342 221.85C302.509 221.283 301.742 220.767 301.042 220.3C301.175 221.467 301.292 222.633 301.392 223.8C301.525 224.967 301.642 226.133 301.742 227.3C301.942 227.933 301.925 228.45 301.692 228.85C301.459 229.25 301.075 229.433 300.542 229.4C299.975 229.3 299.559 229.083 299.292 228.75C299.025 228.383 298.825 227.917 298.692 227.35C298.492 225.983 298.259 224.367 297.992 222.5C297.759 220.633 297.509 218.7 297.242 216.7C296.975 214.7 296.709 212.75 296.442 210.85C296.209 208.95 295.992 207.267 295.792 205.8C295.725 205.333 295.675 204.833 295.642 204.3C295.642 203.733 295.825 203.367 296.192 203.2C296.692 203 297.209 203.117 297.742 203.55C298.275 203.95 298.675 204.567 298.942 205.4C299.209 206.933 299.475 208.6 299.742 210.4C300.009 212.2 300.275 214.1 300.542 216.1C301.209 215.7 301.975 215.267 302.842 214.8C303.742 214.3 304.625 213.833 305.492 213.4C306.392 212.933 307.225 212.517 307.992 212.15C308.759 211.783 309.375 211.533 309.842 211.4ZM324.804 207.35C324.738 207.683 324.504 207.867 324.104 207.9C323.704 207.933 323.371 207.95 323.104 207.95C322.271 207.983 321.404 208.067 320.504 208.2C319.638 208.333 318.721 208.533 317.754 208.8C317.354 208.933 316.921 208.883 316.454 208.65C315.988 208.417 315.704 207.95 315.604 207.25C315.604 206.983 315.704 206.767 315.904 206.6C316.104 206.433 316.338 206.283 316.604 206.15C317.038 205.95 317.554 205.783 318.154 205.65C318.754 205.483 319.354 205.367 319.954 205.3C320.588 205.233 321.188 205.217 321.754 205.25C322.321 205.25 322.788 205.3 323.154 205.4C323.688 205.567 324.104 205.817 324.404 206.15C324.738 206.483 324.871 206.883 324.804 207.35ZM323.654 224C323.888 224.533 324.004 225.117 324.004 225.75C324.038 226.35 323.871 226.767 323.504 227C323.038 227.3 322.538 227.283 322.004 226.95C321.471 226.617 321.071 226.167 320.804 225.6C320.438 224.9 320.154 224.05 319.954 223.05C319.754 222.017 319.604 221 319.504 220C319.404 219 319.338 218.067 319.304 217.2C319.304 216.333 319.304 215.683 319.304 215.25C319.338 214.783 319.471 214.35 319.704 213.95C319.938 213.55 320.238 213.317 320.604 213.25C321.204 213.283 321.688 213.567 322.054 214.1C322.421 214.6 322.588 215.233 322.554 216C322.554 216.6 322.571 217.267 322.604 218C322.638 218.733 322.704 219.467 322.804 220.2C322.904 220.933 323.021 221.65 323.154 222.35C323.288 223.017 323.454 223.567 323.654 224ZM331.714 211.25C331.814 211.75 331.914 212.317 332.014 212.95C332.147 213.55 332.281 214.183 332.414 214.85C332.547 215.483 332.664 216.133 332.764 216.8C332.864 217.467 332.947 218.1 333.014 218.7C333.414 217.833 333.847 216.917 334.314 215.95C334.781 214.983 335.281 214.1 335.814 213.3C336.381 212.467 336.964 211.783 337.564 211.25C338.197 210.717 338.881 210.45 339.614 210.45C340.714 210.45 341.631 210.85 342.364 211.65C343.131 212.45 343.764 213.45 344.264 214.65C344.797 215.817 345.214 217.05 345.514 218.35C345.814 219.65 346.064 220.8 346.264 221.8C346.464 222.7 346.064 223.367 345.064 223.8C344.597 224.033 344.247 224.067 344.014 223.9C343.781 223.733 343.647 223.567 343.614 223.4C343.447 223 343.231 222.3 342.964 221.3C342.731 220.3 342.447 219.283 342.114 218.25C341.814 217.217 341.464 216.317 341.064 215.55C340.664 214.783 340.214 214.433 339.714 214.5C339.114 214.533 338.581 214.983 338.114 215.85C337.714 216.55 337.297 217.333 336.864 218.2C336.464 219.033 336.064 219.9 335.664 220.8C335.264 221.667 334.864 222.55 334.464 223.45C334.097 224.317 333.747 225.117 333.414 225.85C333.181 226.083 332.881 226.25 332.514 226.35C332.181 226.417 331.831 226.383 331.464 226.25C331.131 226.15 330.864 225.983 330.664 225.75C330.464 225.517 330.364 225.283 330.364 225.05C330.064 222.45 329.747 220.083 329.414 217.95C329.114 215.817 328.714 213.633 328.214 211.4C327.981 210.633 327.931 210.033 328.064 209.6C328.231 209.133 328.731 208.95 329.564 209.05C330.731 209.25 331.447 209.983 331.714 211.25ZM358.805 213.95C359.072 214.317 359.322 214.783 359.555 215.35C359.822 215.883 360.022 216.433 360.155 217C360.355 217.9 360.572 218.883 360.805 219.95C361.072 220.983 361.322 222.067 361.555 223.2C361.822 224.333 362.055 225.483 362.255 226.65C362.489 227.817 362.689 228.933 362.855 230C363.055 231.467 362.939 232.867 362.505 234.2C362.105 235.567 361.422 236.783 360.455 237.85C359.489 238.917 358.289 239.767 356.855 240.4C355.422 241.033 353.805 241.383 352.005 241.45C351.605 241.417 351.189 241.217 350.755 240.85C350.322 240.517 350.105 240.167 350.105 239.8C350.072 239.433 350.239 239.133 350.605 238.9C351.005 238.7 351.405 238.567 351.805 238.5C352.505 238.433 353.222 238.283 353.955 238.05C354.722 237.85 355.439 237.55 356.105 237.15C356.772 236.75 357.372 236.267 357.905 235.7C358.472 235.133 358.905 234.467 359.205 233.7C359.439 233.1 359.555 232.367 359.555 231.5C359.555 230.6 359.489 229.717 359.355 228.85C359.255 227.983 359.105 227.167 358.905 226.4C358.739 225.6 358.589 225 358.455 224.6C358.222 224.833 357.922 225.083 357.555 225.35C357.222 225.617 356.839 225.867 356.405 226.1C355.972 226.333 355.489 226.517 354.955 226.65C354.455 226.783 353.939 226.833 353.405 226.8C352.839 226.767 352.305 226.567 351.805 226.2C351.339 225.833 350.922 225.367 350.555 224.8C350.189 224.2 349.889 223.517 349.655 222.75C349.455 221.983 349.355 221.183 349.355 220.35C349.422 218.35 349.922 216.583 350.855 215.05C351.822 213.483 353.355 212.267 355.455 211.4C355.622 211.367 355.839 211.333 356.105 211.3C356.405 211.267 356.705 211.267 357.005 211.3C357.305 211.3 357.589 211.333 357.855 211.4C358.155 211.467 358.405 211.567 358.605 211.7C358.972 211.967 359.155 212.35 359.155 212.85C359.155 213.35 359.039 213.717 358.805 213.95ZM352.505 220.8C352.505 221.167 352.539 221.583 352.605 222.05C352.672 222.483 352.889 222.8 353.255 223C353.655 223.233 354.139 223.267 354.705 223.1C355.305 222.933 355.855 222.65 356.355 222.25C356.822 221.883 357.122 221.483 357.255 221.05C357.422 220.583 357.422 219.967 357.255 219.2C357.089 218.433 356.905 217.633 356.705 216.8C356.505 215.967 356.372 215.217 356.305 214.55C355.905 214.75 355.472 215.033 355.005 215.4C354.572 215.767 354.172 216.233 353.805 216.8C353.439 217.333 353.122 217.933 352.855 218.6C352.622 219.267 352.505 220 352.505 220.8ZM382.412 218.65C381.946 218.717 381.396 218.667 380.762 218.5C380.162 218.333 379.746 217.917 379.512 217.25C379.412 216.917 379.396 216.6 379.462 216.3C379.529 215.967 379.879 215.733 380.512 215.6C381.112 215.467 381.746 215.35 382.412 215.25C383.112 215.117 383.812 215 384.512 214.9L382.662 209.3C382.096 207.167 382.029 205.333 382.462 203.8C382.896 202.267 384.129 201.167 386.162 200.5C386.996 200.233 387.812 200.133 388.612 200.2C389.446 200.267 390.229 200.483 390.962 200.85C391.696 201.217 392.362 201.7 392.962 202.3C393.562 202.9 394.046 203.6 394.412 204.4C394.546 204.767 394.612 205.1 394.612 205.4C394.646 205.667 394.546 205.917 394.312 206.15C393.979 206.483 393.612 206.633 393.212 206.6C392.812 206.533 392.546 206.417 392.412 206.25C392.112 205.883 391.779 205.517 391.412 205.15C391.079 204.75 390.712 204.417 390.312 204.15C389.946 203.85 389.546 203.633 389.112 203.5C388.679 203.333 388.212 203.283 387.712 203.35C387.479 203.383 387.196 203.5 386.862 203.7C386.562 203.9 386.296 204.217 386.062 204.65C385.829 205.05 385.679 205.583 385.612 206.25C385.579 206.917 385.696 207.75 385.962 208.75C386.196 209.583 386.462 210.483 386.762 211.45C387.062 212.417 387.396 213.433 387.762 214.5C389.362 214.333 390.829 214.283 392.162 214.35C392.896 214.417 393.579 214.55 394.212 214.75C394.846 214.95 395.362 215.25 395.762 215.65C395.862 215.983 395.846 216.267 395.712 216.5C395.579 216.7 395.379 216.883 395.112 217.05C394.879 217.183 394.596 217.283 394.262 217.35C393.962 217.417 393.662 217.467 393.362 217.5C392.696 217.567 391.996 217.65 391.262 217.75C390.529 217.817 389.762 217.883 388.962 217.95C389.496 219.45 389.979 220.883 390.412 222.25C390.879 223.583 391.246 224.7 391.512 225.6C391.646 226.1 391.662 226.633 391.562 227.2C391.462 227.767 391.329 228.317 391.162 228.85C390.896 229.617 390.562 230.233 390.162 230.7C389.762 231.167 389.329 231.317 388.862 231.15C388.496 230.983 388.262 230.767 388.162 230.5C388.062 230.233 388.046 229.867 388.112 229.4C388.179 228.867 388.212 228.333 388.212 227.8C388.212 227.267 388.179 226.783 388.112 226.35C388.079 225.883 388.012 225.483 387.912 225.15C387.846 224.783 387.796 224.533 387.762 224.4L385.662 218.3C385.129 218.367 384.596 218.433 384.062 218.5C383.529 218.533 382.979 218.583 382.412 218.65ZM410.717 210.3C411.717 210.667 412.55 211.217 413.217 211.95C413.917 212.683 414.45 213.517 414.817 214.45C415.184 215.35 415.384 216.283 415.417 217.25C415.484 218.217 415.384 219.117 415.117 219.95C414.75 220.883 414.284 221.8 413.717 222.7C413.15 223.6 412.5 224.4 411.767 225.1C411.034 225.8 410.2 226.367 409.267 226.8C408.334 227.233 407.3 227.45 406.167 227.45C404.8 227.45 403.65 227.133 402.717 226.5C401.784 225.867 401.05 225.05 400.517 224.05C399.984 223.05 399.634 221.917 399.467 220.65C399.334 219.383 399.367 218.117 399.567 216.85C399.7 215.917 399.917 215.017 400.217 214.15C400.55 213.25 400.967 212.467 401.467 211.8C401.967 211.1 402.534 210.533 403.167 210.1C403.834 209.667 404.584 209.45 405.417 209.45C405.884 209.45 406.467 209.55 407.167 209.75C407.867 209.917 408.517 210.167 409.117 210.5C409.55 210.1 410.084 210.033 410.717 210.3ZM408.817 213.95C408.45 213.717 408.017 213.417 407.517 213.05C407.05 212.65 406.634 212.45 406.267 212.45C405.867 212.45 405.467 212.633 405.067 213C404.7 213.367 404.367 213.8 404.067 214.3C403.8 214.767 403.567 215.25 403.367 215.75C403.167 216.25 403.034 216.65 402.967 216.95C402.867 217.45 402.8 218.05 402.767 218.75C402.734 219.45 402.784 220.15 402.917 220.85C403.05 221.517 403.3 222.133 403.667 222.7C404.067 223.233 404.65 223.617 405.417 223.85C405.884 223.983 406.434 223.983 407.067 223.85C407.7 223.683 408.317 223.4 408.917 223C409.55 222.6 410.134 222.067 410.667 221.4C411.234 220.733 411.667 219.967 411.967 219.1C412.3 218.133 412.3 217.133 411.967 216.1C411.667 215.033 411.034 214.267 410.067 213.8C409.834 213.967 409.6 214.05 409.367 214.05C409.134 214.05 408.95 214.017 408.817 213.95ZM434.382 210.5C433.782 210.833 433.149 211.183 432.482 211.55C431.849 211.917 431.199 212.35 430.532 212.85C429.899 213.317 429.282 213.883 428.682 214.55C428.115 215.183 427.599 215.95 427.132 216.85C426.465 218.117 426.015 219.417 425.782 220.75C425.549 222.05 425.399 223.333 425.332 224.6C425.332 225.2 425.182 225.817 424.882 226.45C424.615 227.05 424.232 227.35 423.732 227.35C423.099 227.35 422.582 227.033 422.182 226.4C421.815 225.733 421.565 225.1 421.432 224.5C420.865 222.133 420.399 219.8 420.032 217.5C419.665 215.167 419.349 212.85 419.082 210.55C419.082 210.083 419.215 209.783 419.482 209.65C419.782 209.517 420.115 209.467 420.482 209.5C420.882 209.533 421.265 209.633 421.632 209.8C421.999 209.967 422.215 210.233 422.282 210.6C422.415 211.833 422.582 213.133 422.782 214.5C422.982 215.833 423.182 216.983 423.382 217.95C423.515 216.817 423.882 215.717 424.482 214.65C425.082 213.583 425.815 212.617 426.682 211.75C427.582 210.883 428.582 210.15 429.682 209.55C430.815 208.95 431.965 208.55 433.132 208.35C433.632 208.283 434.049 208.283 434.382 208.35C434.715 208.417 434.949 208.533 435.082 208.7C435.215 208.867 435.232 209.133 435.132 209.5C435.065 209.867 434.815 210.2 434.382 210.5ZM448.351 214.3C447.917 214.833 447.451 215.333 446.951 215.8C446.451 216.267 445.984 216.75 445.551 217.25C445.151 217.75 444.834 218.283 444.601 218.85C444.367 219.417 444.317 220.067 444.451 220.8C444.684 221.267 444.784 221.633 444.751 221.9C444.717 222.133 444.584 222.333 444.351 222.5C443.751 222.833 443.151 222.683 442.551 222.05C442.151 221.617 441.867 221.1 441.701 220.5C441.567 219.867 441.534 219.25 441.601 218.65C441.701 218.017 441.884 217.4 442.151 216.8C442.451 216.2 442.834 215.667 443.301 215.2C443.767 214.733 444.251 214.25 444.751 213.75C445.251 213.217 445.701 212.667 446.101 212.1C446.501 211.533 446.801 210.967 447.001 210.4C447.201 209.8 447.251 209.183 447.151 208.55C447.117 208.317 446.984 208.117 446.751 207.95C446.517 207.75 446.217 207.6 445.851 207.5C445.484 207.367 445.067 207.3 444.601 207.3C444.167 207.267 443.717 207.317 443.251 207.45C442.484 207.683 441.817 208.1 441.251 208.7C440.684 209.267 440.384 209.883 440.351 210.55C440.584 211.083 440.567 211.45 440.301 211.65C440.067 211.817 439.817 211.9 439.551 211.9C439.317 211.9 439.101 211.833 438.901 211.7C438.101 210.9 437.751 210.033 437.851 209.1C437.984 208.167 438.351 207.317 438.951 206.55C439.517 205.783 440.234 205.183 441.101 204.75C442.001 204.283 442.967 204.017 444.001 203.95C445.301 203.85 446.517 204.083 447.651 204.65C448.817 205.183 449.617 206.1 450.051 207.4C450.484 208.867 450.484 210.167 450.051 211.3C449.617 212.433 449.051 213.433 448.351 214.3ZM446.601 229.8C446.701 230.267 446.634 230.683 446.401 231.05C446.167 231.417 445.851 231.7 445.451 231.9C445.084 232.1 444.684 232.183 444.251 232.15C443.851 232.117 443.501 231.917 443.201 231.55C443.001 231.317 442.884 231.05 442.851 230.75C442.817 230.45 442.817 230.133 442.851 229.8C442.917 229.467 442.984 229.15 443.051 228.85C443.151 228.55 443.201 228.283 443.201 228.05C443.201 227.95 443.234 227.833 443.301 227.7C443.367 227.567 443.451 227.467 443.551 227.4C443.684 227.3 443.817 227.25 443.951 227.25C444.084 227.25 444.234 227.35 444.401 227.55C444.867 227.917 445.351 228.3 445.851 228.7C446.351 229.067 446.601 229.433 446.601 229.8Z" fill="#E5E5E5"/>
</svg>
